<?xml version="1.0" standalone="no"?><!DOCTYPE svg PUBLIC "-//W3C//DTD SVG 1.1//EN" "http://www.w3.org/Graphics/SVG/1.1/DTD/svg11.dtd"><svg t="1516072524258" class="icon" style="" viewBox="0 0 1024 1024" version="1.1" xmlns="http://www.w3.org/2000/svg" p-id="11447" xmlns:xlink="http://www.w3.org/1999/xlink" width="200" height="200"><defs><style type="text/css">@font-face { font-family: uc-nexus-iconfont; src: url("chrome-extension://pogijhnlcfmcppgimcaccdkmbedjkmhi/res/font_9qmmi8b8jsxxbt9.woff") format("woff"), url("chrome-extension://pogijhnlcfmcppgimcaccdkmbedjkmhi/res/font_9qmmi8b8jsxxbt9.ttf") format("truetype"); }
</style></defs><path d="M768 512C768 370.615108 653.384896 256 512 256 370.615104 256 256 370.615108 256 512 256 653.384892 370.615104 768 512 768 653.384896 768 768 653.384892 768 512ZM512 1024 512 1024C229.230208 1024 0 794.769792 0 512 0 229.230208 229.230208 0 512 0 794.769792 0 1024 229.230208 1024 512 1024 794.769792 794.769792 1024 512 1024L512 1024ZM512 597.333333 512 597.333333C559.128299 597.333333 597.333333 559.128294 597.333333 512 597.333333 464.871706 559.128299 426.666667 512 426.666667 464.871701 426.666667 426.666667 464.871706 426.666667 512 426.666667 559.128294 464.871701 597.333333 512 597.333333L512 597.333333Z" p-id="11448"></path></svg>