<?xml version="1.0" standalone="no"?><!DOCTYPE svg PUBLIC "-//W3C//DTD SVG 1.1//EN" "http://www.w3.org/Graphics/SVG/1.1/DTD/svg11.dtd"><svg t="1516072433841" class="icon" style="" viewBox="0 0 1025 1024" version="1.1" xmlns="http://www.w3.org/2000/svg" p-id="9978" xmlns:xlink="http://www.w3.org/1999/xlink" width="200.1953125" height="200"><defs><style type="text/css">@font-face { font-family: uc-nexus-iconfont; src: url("chrome-extension://pogijhnlcfmcppgimcaccdkmbedjkmhi/res/font_9qmmi8b8jsxxbt9.woff") format("woff"), url("chrome-extension://pogijhnlcfmcppgimcaccdkmbedjkmhi/res/font_9qmmi8b8jsxxbt9.ttf") format("truetype"); }
</style></defs><path d="M512.011875 0C229.68778 0 0 229.68778 0 512.011875c0 282.315345 229.68778 511.988125 512.011875 511.988125s512.011875-229.67278 512.011875-511.988125C1024.025 229.68778 794.33722 0 512.011875 0zM422.954266 720.84588c-16.28377 0-29.477536-13.466266-29.477536-30.112537-0.01875-16.62127 13.193766-30.107537 29.477536-30.107537 16.26502 0 29.472536 13.486266 29.472536 30.107537C452.426802 707.359613 439.219286 720.84588 422.954266 720.84588zM641.114533 720.82588c-16.44502 0-29.795036-13.466266-29.795036-30.112537 0-16.60127 13.350016-30.087537 29.795036-30.087537 16.44002 0 29.790036 13.486266 29.790036 30.087537C670.904569 707.339613 657.579553 720.82588 641.114533 720.82588zM750.347166 501.739362c0 21.942527-17.778772 39.716298-39.721298 39.716298L399.917988 541.455661l8.656261 39.721298 281.875344 0c10.801263 0 19.541274 8.760011 19.541274 19.546274 0 10.801263-8.760011 19.541274-19.541274 19.541274L398.842987 620.264507c-0.18 0.05875-0.3225 0.2-0.497501 0.25875-6.792508 1.826252-13.486266-0.478751-18.213772-5.000006-0.653751-0.561251-1.307502-1.016251-1.888752-1.648752-0.1175-0.16125-0.215-0.3425-0.3375-0.498751-2.958754-3.411254-4.922506-7.743759-4.922506-12.651265 0-0.2975 0.15625-0.556251 0.175-0.853751l-56.025068-257.027814-23.916279 0c-10.781263 0-19.541274-8.758761-19.541274-19.540024 0-10.806263 8.760011-19.546274 19.541274-19.546274l34.185042 0 0.02 0c4.628756-1.230002 9.213761-0.478751 13.207516 1.430002 0.25875 0.1025 0.537501 0.16125 0.776251 0.27875 0.653751 0.3375 1.191251 0.796251 1.787502 1.211251 5.840007 3.358754 9.931262 9.393761 9.931262 16.62627 0 0.633751-0.2975 1.171251-0.36125 1.786252l40.077549 183.877724-1.562502-7.226259 299.487866 0c10.962513 0 19.863774-8.901261 19.863774-19.868774l0-39.721298c0-10.962513-8.901261-19.858774-19.863774-19.858774L432.569278 422.291765c-10.967513 0-19.863774-8.760011-19.863774-19.546274 0-10.805013 8.896261-19.541274 19.863774-19.541274l0-0.638751L710.625867 382.565467c21.943777 0 39.721298 17.797522 39.721298 39.726298L750.347166 501.739362z" p-id="9979"></path><path d="M512.011875 989.278708" p-id="9980"></path></svg>