<?xml version="1.0" standalone="no"?><!DOCTYPE svg PUBLIC "-//W3C//DTD SVG 1.1//EN" "http://www.w3.org/Graphics/SVG/1.1/DTD/svg11.dtd"><svg t="1517450435859" class="icon" style="" viewBox="0 0 1024 1024" version="1.1" xmlns="http://www.w3.org/2000/svg" p-id="9664" xmlns:xlink="http://www.w3.org/1999/xlink" width="200" height="200"><defs><style type="text/css">@font-face { font-family: uc-nexus-iconfont; src: url("chrome-extension://pogijhnlcfmcppgimcaccdkmbedjkmhi/res/font_9qmmi8b8jsxxbt9.woff") format("woff"), url("chrome-extension://pogijhnlcfmcppgimcaccdkmbedjkmhi/res/font_9qmmi8b8jsxxbt9.ttf") format("truetype"); }
</style></defs><path d="M638.47599 164.850828c3.413093 6.826186 7.678715 12.798851 12.798851 17.917994 5.119143 5.119143 11.433217 7.678715 18.94222 7.678715l0 0 150.51155 0 0-16.382648c0-4.09591-0.682817-8.873645-2.047459-14.334197-1.364642-5.460552-4.948439-12.116034-10.7504-19.965453-5.801961-7.849419-14.163493-17.405882-25.085589-28.668394-10.921104-11.262512-25.597702-25.085589-44.026817-41.467245-17.064473-15.017014-31.228958-27.133048-42.491471-36.348102-11.262512-9.215054-20.818975-16.382648-28.668394-21.501792-7.849419-5.119143-14.504901-8.361532-19.965453-9.727166S636.428531 0.005081 630.285162 0.005081l-2.047459 0 0 125.938073c0 4.777735 0.853521 10.7504 2.559572 17.917994C632.503326 151.028744 635.062897 158.024642 638.47599 164.850828L638.47599 164.850828zM627.213478 767.408147 627.213478 767.408147 243.597297 767.408147c-17.74729 0-32.764304-6.143369-45.051042-18.430107-12.286738-12.286738-18.430107-27.303752-18.430107-45.051042 0-17.74729 6.143369-32.935008 18.430107-45.563155 12.286738-12.628147 27.303752-18.94222 45.051042-18.94222l383.616181 0c17.74729 0 32.935008 6.314073 45.563155 18.94222 12.628147 12.628147 18.94222 27.815865 18.94222 45.563155 0 12.969555-3.754502 24.914885-11.262512 35.835989L820.557907 594.371572l0-338.565138L671.06959 255.806434c-19.112924 0-35.49458-4.266614-49.146953-12.798851s-24.744181-19.112924-33.276417-31.740079c-8.532236-12.628147-14.84631-26.450231-18.94222-41.467245-4.09591-15.017014-6.143369-29.009803-6.143369-41.979358L563.560632 0.005081 171.92532 0.005081c-15.699831 0-30.716845 4.266614-45.051042 12.798851-14.334197 8.532236-27.133048 19.112924-38.39556 31.740079S68.341567 71.33565 61.857782 87.035482s-9.727166 30.716845-9.727166 45.051042l0 696.755314c0 17.064473 4.437319 33.617826 13.310964 49.658073 8.873645 16.04124 19.965453 30.204732 33.276417 42.491471 13.310964 12.286738 27.645161 22.184609 43.003583 29.69262 15.358423 7.509003 29.521915 11.262512 42.491471 11.262512L466.634346 961.946513l198.463572-206.6544C654.858639 763.312237 642.230492 767.408147 627.213478 767.408147L627.213478 767.408147zM198.546255 402.734186c12.286738-12.628147 27.303752-18.94222 45.051042-18.94222l383.616181 0c17.74729 0 32.935008 6.314073 45.563155 18.94222 12.628147 12.628147 18.94222 27.815865 18.94222 45.563155 0 17.74729-6.314073 32.764304-18.94222 45.051042s-27.815865 18.430107-45.563155 18.430107L243.597297 511.778491c-17.74729 0-32.764304-6.143369-45.051042-18.430107-12.286738-12.286738-18.430107-27.303752-18.430107-45.051042C180.116148 430.549059 186.259517 415.361341 198.546255 402.734186L198.546255 402.734186zM969.533118 672.357623 969.533118 672.357623c-4.09591-9.556462-10.068575-18.600811-17.917994-27.133048-7.849419-8.532236-15.187718-14.504901-22.013905-17.917994-6.143369-3.413093-13.992788-5.631256-23.549251-6.655482s-18.430107 2.218163-26.620935 9.727166c-3.413093 2.730276-7.678715 6.484778-12.798851 11.262512-5.119143 4.777735-9.727166 8.873645-13.822084 12.286738l87.0304 86.006174c2.047459-1.365634 4.437319-3.413093 7.167595-6.143369 2.047459-2.047459 4.437319-4.607031 7.167595-7.678715 2.730276-3.071685 5.801961-6.314073 9.215054-9.727166 7.509003-7.509003 10.921104-15.358423 10.239279-23.549251C972.946211 684.644361 971.580577 677.818175 969.533118 672.357623L969.533118 672.357623zM719.875134 785.838254c-12.286738 12.286738-24.573476 24.744181-36.860214 37.372327-12.286738 12.628147-23.549251 24.061363-33.78853 34.300643l-38.907673 38.907673 0 0c-6.826186 6.826186-12.286738 14.675606-16.382648 23.549251-1.364642 2.730276-3.242389 7.849419-5.631256 15.358423-2.388867 7.508011-4.948439 15.529127-7.678715 24.061363-2.730276 8.532236-5.119143 16.893769-7.167595 25.085589-2.047459 8.190828-3.413093 14.334197-4.09591 18.430107-1.364642 8.190828-0.682817 13.992788 2.047459 17.405882 2.730276 3.413093 8.190828 4.437319 16.382648 3.071685 4.09591-0.682817 10.239279-2.047459 18.430107-4.09591 8.190828-2.047459 16.723064-4.437319 25.596709-7.167595s17.576586-5.631256 26.108822-8.702941c8.532236-3.071685 14.84631-5.631256 18.94222-7.678715 4.09591-2.047459 8.190828-4.607031 12.286738-7.678715 4.09591-3.071685 7.849419-5.972665 11.262512-8.702941 0.682817-0.682817 4.266614-4.437319 10.7504-11.262512 6.484778-6.826186 14.504901-15.017014 24.061363-24.573476L905.027743 773.72222l-86.006174-86.006174C782.161354 723.722739 749.226345 756.487043 719.875134 785.838254L719.875134 785.838254z" p-id="9665" fill="#ffffff"></path></svg>