<?xml version="1.0" standalone="no"?><!DOCTYPE svg PUBLIC "-//W3C//DTD SVG 1.1//EN" "http://www.w3.org/Graphics/SVG/1.1/DTD/svg11.dtd"><svg t="1515641993716" class="icon" style="" viewBox="0 0 1025 1024" version="1.1" xmlns="http://www.w3.org/2000/svg" p-id="7147" xmlns:xlink="http://www.w3.org/1999/xlink" width="200.1953125" height="200"><defs><style type="text/css">@font-face { font-family: uc-nexus-iconfont; src: url("chrome-extension://pogijhnlcfmcppgimcaccdkmbedjkmhi/res/font_9qmmi8b8jsxxbt9.woff") format("woff"), url("chrome-extension://pogijhnlcfmcppgimcaccdkmbedjkmhi/res/font_9qmmi8b8jsxxbt9.ttf") format("truetype"); }
</style></defs><path d="M512.512 914.944c222.208 0.512 402.432-179.712 402.944-401.408 0.512-222.208-179.712-402.432-401.408-402.944h-1.024c-222.208 0.512-401.92 180.736-401.408 402.944-0.512 221.696 179.2 400.896 400.896 401.408z m0 73.216c-262.656 0.512-475.648-211.968-476.16-474.624s211.968-475.648 474.624-476.16h1.536c262.656 0.512 475.136 213.504 474.624 476.16-0.512 262.144-212.48 474.112-474.624 474.624z m-475.648-512H914.944v73.216h-877.568V476.16z m475.648 438.784c65.536 0 146.432-175.104 146.432-402.432s-80.896-402.432-146.432-402.432-146.432 175.104-146.432 402.432 80.896 402.432 146.432 402.432z m0 73.216c-121.344 0-219.648-212.992-219.648-475.648s98.304-475.648 219.648-475.648S732.16 249.856 732.16 512.512 633.856 988.16 512.512 988.16z" p-id="7148"></path></svg>